<svg width="226" height="63" fill="none" xmlns="http://www.w3.org/2000/svg"><path d="M224.5 28.5s-.015-.985 0-1l.198-1.22v-3.37c0-1.276 1.802-3.91-.119-7.637l-.64-.955c.062-.924-.748-1.1.061-1.909.32-.318-.061-.682-.061-1l-1.28-1.227-.32-.318c-.321 0-.321 0-.641-.319l-.96-.636c-.32-.318-2.881-2.227-3.201-2.227l-.961-.955c-2.24 0-2.881-1.59-4.161-1.59-5.122-1.592-8.003-1.91-10.244-1.91h-3.841c-.32 0-4.802-.318-5.122-.636h-3.201C184.565 1.59 180.724 0 173.041 0c-.96 0-2.881.318-5.122.318h-11.844c-7.363 0-8.643.637-12.484.637h-.961c-.32.318-1.28.636-2.881.636h-8.963c-.96 0-4.481.636-5.442.636h-2.561c-.96 0-5.762.318-6.722.318h-10.244c-.32 0-3.201-.318-4.161-.318h-7.363c-.96 0-8.003-.318-10.243-.636h-3.522c-1.92 0-3.2-.318-3.52-.636h-4.162c-4.162 0-6.723-.637-18.567-.637-12.484 0-15.365.955-22.408.955H27.39c-2.881 0-5.762-.318-6.723-.318-6.402 0-8.963.636-10.564 1.909l-2.56 1.59c-.96.319-1.921.955-4.162 1.273l-.96.318C2.42 7 .82 8.91.5 9.227l.64.955c.32.318.32.636.32.954l-.32 3.182c0 .318 0 .318.32.636l.64.319-.96 2.227-.64.318c.32.955.96 5.41.96 6.682v18.455c0 2.227 1.28 3.181 1.28 4.136l.641.954c.32.319.32.319.32.637v.636l2.24 2.227c.321.319.321.319.321.637l.32.318c0 .636.64 1.273 1.6 1.59l1.601 1.274c1.28 0 2.241.636 3.201.636l.64.318c.32.318.64.318.961.318l3.841.637c2.881.954 8.643 1.59 9.604 1.59h2.88c.961 0 8.324-.954 9.284-.954h.64c1.921 0 16.966.955 18.887.955h1.92c.32 0 2.882.318 3.202.318h.32c8.003 0 11.524 1.59 18.887 1.59h2.24c.32.319.96.319 1.921.319h1.92c1.601 0 5.123.954 5.443.954h8.643c2.241 0 6.082.955 7.042.955h2.561c4.162 0 12.164-.955 18.247-.955h4.801c.961-.318 4.802-.954 5.762-.954h1.281c.64 0 .96 0 1.28-.318h1.921c.32 0 1.921-.637 2.881-.637h.64c1.601-.318 7.363-1.272 8.643-2.227l32.012-.318c.32 0 4.801.318 5.762.318h4.161l3.201.955h9.283c4.553 0 10.244-11.455 10.244-11.455L224.5 28.5z" fill="#000"/></svg>