<svg xmlns="http://www.w3.org/2000/svg" width="166" height="85" fill="none" viewBox="0 0 166 85">
  <path fill="#F1AA00" d="M162.683 57.626c-3.709 12.892-19.881 18.245-33.598 21.587-14.256 3.474-29.348 4.477-44.09 3.027-1.91-.188-3.809-.422-5.698-.697 2.536.073 5.065.12 7.582.136 15.65.097 32.004-.686 47.142-4.279 12.088-2.871 22.896-8.994 25.957-19.74 3.541-12.426.437-25.018-10.357-34.16-5.26-4.457-11.286-8.223-17.765-11.345 8.818 1.54 17.576 4.027 23.217 9.524 5.094 4.961 6.422 11.708 7.553 17.971 1.073 5.933 1.757 12.074.057 17.976zM22.353 70.885C11.386 65.957 3.576 57.039 1.835 46.863c1.497 4.086 3.984 7.941 7.457 11.313 9.574 9.303 24.235 14.773 38.063 18.055 4.893 1.163 9.863 2.058 14.877 2.734a.754.754 0 00.09.414c-13.518-1.213-28.079-3.15-39.97-8.494zm-9.29-55.054C22.612 7.988 36.237 4.927 49.113 3.357c12.743-1.553 25.82-1.772 38.62-.582 9.352.867 18.681 2.553 27.562 5.235-6.32-.891-12.669-1.635-19.053-2.174C78.328 4.32 60.138 4.3 42.369 6.946c-13.962 2.08-27.712 6.536-35.84 16.816a33.838 33.838 0 00-1.516 2.097c1.87-3.735 4.581-7.179 8.05-10.028zm57.028 64.014c3.049.28 6.11.49 9.174.64a271.144 271.144 0 01-8.17-.418c-.334-.071-.67-.147-1.004-.222zm55.331-68.249c11.697 4.82 25.1 12.349 30.628 22.612 5.835 10.836 4.376 27.073-6.64 35.225-7.743 5.732-18.069 8.038-28.24 9.307-.083-.312-.363-.57-.871-.545-28.5 1.463-58.638 2.134-85.387-7.574C22.13 65.979 8.75 58.702 3.957 47.15A24.289 24.289 0 012.13 36.77c2.293-10.18 10.438-18.889 21.694-23.424 13.884-5.595 30.626-6.48 45.782-6.678 16.25-.212 32.428 1.28 48.437 3.502 1.836.254 3.762.503 5.725.767.551.217 1.105.434 1.654.659zm38.833 29.603c-1.199-6.12-2.564-13.043-6.741-18.297-3.375-4.247-8.565-7.177-14.085-9.16-5.438-1.953-11.218-3.054-17.009-4.014a115.037 115.037 0 00-11.584-4.056C101.157 1.674 86.56.015 72.106 0 57.764-.015 42.597 1.13 29.153 5.557 16.895 9.592 6.343 16.845 2.118 27.58a27.351 27.351 0 00-1.91 11.003c-.665 5.433.263 11.003 2.813 16.23 5.71 11.707 18.284 18.232 32.331 21.508 10.415 2.428 21.307 3.875 32.22 4.644 14.21 3.31 29.073 4.325 43.757 2.854 14.337-1.436 30.509-4.832 42.237-12.25 11.729-7.417 12.914-18.998 10.689-30.371z"/>
</svg>
