<svg xmlns="http://www.w3.org/2000/svg" width="207" height="28" fill="none" viewBox="0 0 207 28">
  <path fill="#F1AA00" d="M19.873 7.18c-5.976 1.583-6.342 6.649-.341 8.854 7.035 2.584 10.664-2.52 9.228-9.101-4.157-19.057-46.7 5.94-20.025 17.961 13.148 5.926 28.358-3.124 40.313-7.852 9.737-3.852 20.993-7.944 31.02-3.063 3.797 1.85 7.724 5.677 2.941 9.303-7.841 5.944-10.381-2.979-5.737-6.692 2.683-2.145 6.743-3.21 10.072-3.261 7.736-.12 14.255 6.617 21.963 7.401 7.702.783 15.36 1.23 22.913-.772 2.617-.693 16.049-7.801 8.06-10.813-4.989-1.882-12.589-.075-14.785 5.165-4.66 11.116 12.652 11.88 18.845 11.013 4.737-.662 9.701-1.902 13.844-4.36 8.071-4.785 14.54-12.453 23.827-14.954 9.465-2.55 22.937.177 20.036 12.712-1.283 5.543-6.943 6.797-11.632 5.7-1.856-.435-3.314-1.636-4.16-3.316a5.558 5.558 0 01-.219-3.26c1.764-3.983 2.535-4.245 2.313-.787l-1.488 1.896c1.04-.324 1.699-.623 2.602-1.242 2.165-1.486-1.11-2.31-2.46-1.383l-.732.418c-.591.183-2.283 1.022-1.488 1.896 6.12 6.734 14.57-5.233 7.968-6.968-6.986-1.836-15.475 8.569-8.039 13.435 6.467 4.232 17.74 2.395 20.703-5.442 1.925-5.09.688-10.017-3.182-13.795-4.269-4.168-11.374-3.656-16.75-2.902-15.16 2.13-23.726 16.211-38.336 19.515-6.152 1.39-17.924 2.46-18.191-6.61-.124-4.214 6.757-6.88 9.64-3.883 1.839 1.91-5.015 4.992-5.68 5.301-4.893 2.275-11.141 1.823-16.371 1.527-9.445-.532-16.526-5.694-25.469-7.648-5.31-1.163-25.135 3.832-19.948 12.699 4.053 6.926 20.043 1.907 17.867-6.337-1.174-4.45-7.939-6.73-11.752-7.79-7.894-2.196-17.218.984-24.611 3.517-10.273 3.52-20.141 9.37-30.985 10.876-8.227 1.144-18.975-3.447-16.764-13.19 1.894-8.347 16.84-12.12 20.013-2.98 1.05 3.027.779 7.515-3.359 5.606-1.746-.805-4.505-3.278-1.073-4.188 2.348-.621 1.755-2.827-.59-2.205z"/>
</svg>
